<svg width="16" height="16" viewBox="0 0 16 16" fill="none" xmlns="http://www.w3.org/2000/svg">
<path d="M15.7813 2.95672L13.0426 0.218039C12.7519 -0.0726797 12.28 -0.0726797 11.9893 0.218039C11.6986 0.508758 11.6986 0.980648 11.9893 1.27137L12.3053 1.58738L11.252 2.64071L11.6733 3.06204L12.9373 4.32606L13.3586 4.74739L14.4119 3.69406L14.7279 4.01008C15.0187 4.3008 15.4906 4.3008 15.7813 4.01008C16.072 3.71936 16.072 3.24744 15.7813 2.95672Z" fill="white"/>
<path d="M12.938 5.16877L10.8313 3.06208L10.3046 2.53541C9.89804 2.12882 9.23655 2.12882 8.82993 2.53541C8.45916 2.90621 8.42758 3.48973 8.73302 3.89631L8.09259 4.53674L8.51392 4.95807L9.35658 5.80074C9.47244 5.9166 9.47244 6.1062 9.35658 6.22207C9.24072 6.33793 9.05111 6.33793 8.93525 6.22207L8.09259 5.3794L7.67126 4.95807L7.03926 5.59007L7.46059 6.0114L8.09259 6.6434C8.20845 6.75926 8.20845 6.94886 8.09259 7.06473C7.97672 7.18059 7.78712 7.18059 7.67126 7.06473L7.03926 6.43273L6.61793 6.0114L5.98593 6.6434L6.40726 7.06473L7.24993 7.90739C7.36579 8.02325 7.36579 8.21286 7.24993 8.32872C7.13406 8.44458 6.94446 8.44458 6.82859 8.32872L5.98593 7.48606L5.5646 7.06473L4.93261 7.69672L5.35394 8.11805L5.98593 8.75005C6.1018 8.86592 6.1018 9.05552 5.98593 9.17138C5.87007 9.28725 5.68047 9.28725 5.5646 9.17138L4.93261 8.53939L4.51127 8.11805L3.45795 9.17138C2.87648 9.75285 2.87648 10.6966 3.45795 11.2781L3.48113 11.3012L2.17289 12.9887C2.07597 13.1067 2.08652 13.2773 2.19395 13.3847L0.0873006 15.4914C-0.0291598 15.6078 -0.0290406 15.7964 0.0873006 15.9127C0.203642 16.029 0.392201 16.0292 0.508631 15.9127L2.61532 13.8061C2.72275 13.9135 2.89337 13.924 3.01135 13.8271L4.69879 12.5189L4.72197 12.5421C5.30341 13.1235 6.24719 13.1235 6.82862 12.5421L12.1038 7.26693C12.5103 7.5724 13.0939 7.54082 13.4647 7.17005C13.8712 6.76346 13.8712 6.10194 13.4647 5.69536L12.938 5.16877Z" fill="white"/>
</svg>
