<svg width="165" height="160" viewBox="0 0 165 160" fill="none" xmlns="http://www.w3.org/2000/svg">
<g clip-path="url(#clip0)">
<path d="M28.3544 125.074C44.0142 125.074 56.7089 112.339 56.7089 96.6297C56.7089 80.9203 44.0142 68.1853 28.3544 68.1853C12.6947 68.1853 0 80.9203 0 96.6297C0 112.339 12.6947 125.074 28.3544 125.074Z" fill="#FFE4EB"/>
<path d="M111.392 160C124.815 160 135.696 149.084 135.696 135.619C135.696 122.154 124.815 111.238 111.392 111.238C97.9698 111.238 87.0886 122.154 87.0886 135.619C87.0886 149.084 97.9698 160 111.392 160Z" fill="#FFE4EB"/>
<path d="M123.544 81.2698C145.915 81.2698 164.051 63.077 164.051 40.6349C164.051 18.1929 145.915 0 123.544 0C101.173 0 83.0381 18.1929 83.0381 40.6349C83.0381 63.077 101.173 81.2698 123.544 81.2698Z" fill="#FFE4EB"/>
<path d="M111.899 132.063H59.2405V144.254H111.899V132.063Z" fill="#B5DDFF"/>
<path d="M101.772 132.063H59.2405V140.19H93.6709C95.8195 140.19 97.88 139.334 99.3993 137.81C100.919 136.286 101.772 134.219 101.772 132.063Z" fill="white"/>
<path d="M111.899 145.778H59.2404C58.8392 145.773 58.4559 145.61 58.1721 145.326C57.8884 145.041 57.7267 144.656 57.7214 144.254V132.063C57.7214 131.659 57.8815 131.272 58.1663 130.986C58.4512 130.7 58.8376 130.54 59.2404 130.54H111.899C112.302 130.54 112.688 130.7 112.973 130.986C113.258 131.272 113.418 131.659 113.418 132.063V144.254C113.412 144.656 113.251 145.041 112.967 145.326C112.683 145.61 112.3 145.773 111.899 145.778ZM60.7594 142.73H110.38V133.587H60.7594V142.73Z" fill="#2977B3"/>
<path d="M20.7595 119.873H150.38V125.968C150.38 127.585 149.74 129.135 148.6 130.278C147.461 131.421 145.915 132.063 144.304 132.063H26.8355C25.224 132.063 23.6786 131.421 22.5391 130.278C21.3997 129.135 20.7595 127.585 20.7595 125.968V119.873Z" fill="#B5DDFF"/>
<path d="M132.152 128H20.7595V119.873H140.253C140.253 122.028 139.4 124.095 137.88 125.62C136.361 127.144 134.301 128 132.152 128Z" fill="white"/>
<path d="M144.304 133.587H26.8354C24.8211 133.587 22.8893 132.785 21.465 131.356C20.0407 129.927 19.2405 127.989 19.2405 125.968V119.873C19.2405 119.469 19.4005 119.081 19.6854 118.796C19.9702 118.51 20.3566 118.349 20.7595 118.349H150.38C150.783 118.349 151.169 118.51 151.454 118.796C151.739 119.081 151.899 119.469 151.899 119.873V125.968C151.899 127.989 151.099 129.927 149.674 131.356C148.25 132.785 146.318 133.587 144.304 133.587ZM22.2785 121.397V125.968C22.2785 127.181 22.7586 128.343 23.6132 129.201C24.4678 130.058 25.6268 130.54 26.8354 130.54H144.304C145.512 130.54 146.671 130.058 147.526 129.201C148.381 128.343 148.861 127.181 148.861 125.968V121.397H22.2785Z" fill="#2977B3"/>
<path d="M126.076 145.778H45.0632C44.6603 145.778 44.274 145.617 43.9891 145.331C43.7042 145.046 43.5442 144.658 43.5442 144.254C43.5442 143.85 43.7042 143.462 43.9891 143.176C44.274 142.891 44.6603 142.73 45.0632 142.73H126.076C126.479 142.73 126.865 142.891 127.15 143.176C127.435 143.462 127.595 143.85 127.595 144.254C127.595 144.658 127.435 145.046 127.15 145.331C126.865 145.617 126.479 145.778 126.076 145.778Z" fill="#2977B3"/>
<path d="M85.5695 127.492C86.4084 127.492 87.0885 126.81 87.0885 125.968C87.0885 125.127 86.4084 124.444 85.5695 124.444C84.7306 124.444 84.0505 125.127 84.0505 125.968C84.0505 126.81 84.7306 127.492 85.5695 127.492Z" fill="#2977B3"/>
<path d="M26.8355 38.6031H144.304C145.915 38.6031 147.461 39.2453 148.6 40.3884C149.74 41.5315 150.38 43.0818 150.38 44.6984V119.873H20.7595V44.6984C20.7595 43.0818 21.3997 41.5315 22.5391 40.3884C23.6786 39.2453 25.224 38.6031 26.8355 38.6031Z" fill="#B5DDFF"/>
<path d="M26.8355 38.6031H142.279V97.5238C142.279 99.6792 141.425 101.746 139.906 103.27C138.386 104.795 136.326 105.651 134.177 105.651H20.7595V44.6984C20.7595 43.0818 21.3997 41.5315 22.5391 40.3884C23.6786 39.2453 25.224 38.6031 26.8355 38.6031Z" fill="white"/>
<path d="M150.38 121.397H20.7595C20.3582 121.392 19.9749 121.229 19.6912 120.945C19.4074 120.66 19.2457 120.276 19.2405 119.873V44.6985C19.2405 42.6778 20.0407 40.7399 21.465 39.311C22.8893 37.8822 24.8211 37.0795 26.8354 37.0795H144.304C146.318 37.0795 148.25 37.8822 149.674 39.311C151.099 40.7399 151.899 42.6778 151.899 44.6985V119.873C151.893 120.276 151.732 120.66 151.448 120.945C151.164 121.229 150.781 121.392 150.38 121.397ZM22.2785 118.349H148.861V44.6985C148.861 43.4861 148.381 42.3233 147.526 41.466C146.671 40.6087 145.512 40.1271 144.304 40.1271H26.8354C25.6268 40.1271 24.4678 40.6087 23.6132 41.466C22.7586 42.3233 22.2785 43.4861 22.2785 44.6985V118.349Z" fill="#2977B3"/>
<path d="M132.152 30.4762H38.9873V119.873H132.152V30.4762Z" fill="#B5DDFF"/>
<path d="M38.9873 30.4762H124.051V77.2064C124.051 86.9057 120.21 96.2078 113.373 103.066C106.536 109.925 97.2636 113.778 87.5949 113.778H38.9873V30.4762Z" fill="white"/>
<path d="M132.152 121.397H38.9872C38.586 121.392 38.2027 121.229 37.919 120.945C37.6352 120.66 37.4735 120.276 37.4683 119.873V30.4762C37.4683 30.0721 37.6283 29.6845 37.9132 29.3987C38.198 29.1129 38.5844 28.9524 38.9872 28.9524H132.152C132.555 28.9524 132.941 29.1129 133.226 29.3987C133.511 29.6845 133.671 30.0721 133.671 30.4762V119.873C133.666 120.276 133.504 120.66 133.22 120.945C132.936 121.229 132.553 121.392 132.152 121.397ZM40.5062 118.349H130.633V32H40.5062V118.349Z" fill="#2977B3"/>
<path d="M43.0379 14.2222H128.101C129.176 14.2222 130.206 14.6503 130.965 15.4123C131.725 16.1744 132.152 17.208 132.152 18.2857V30.4761H38.9873V18.2857C38.9873 17.208 39.4141 16.1744 40.1737 15.4123C40.9333 14.6503 41.9636 14.2222 43.0379 14.2222Z" fill="#B5DDFF"/>
<path d="M43.0379 14.2222H126.076V22.3492C126.076 23.4269 125.649 24.4604 124.89 25.2225C124.13 25.9845 123.1 26.4126 122.025 26.4126H38.9873V18.2857C38.9873 17.208 39.4141 16.1744 40.1737 15.4123C40.9333 14.6503 41.9636 14.2222 43.0379 14.2222Z" fill="white"/>
<path d="M132.152 32.0001H38.9872C38.586 31.9948 38.2027 31.8326 37.919 31.5479C37.6352 31.2633 37.4735 30.8788 37.4683 30.4763V18.2858C37.4683 16.8039 38.0551 15.3828 39.0996 14.335C40.1441 13.2871 41.5607 12.6985 43.0379 12.6985H128.101C129.578 12.6985 130.995 13.2871 132.039 14.335C133.084 15.3828 133.671 16.8039 133.671 18.2858V30.4763C133.666 30.8788 133.504 31.2633 133.22 31.5479C132.936 31.8326 132.553 31.9948 132.152 32.0001ZM40.5062 28.9525H130.633V18.2858C130.633 17.6122 130.366 16.9662 129.891 16.49C129.417 16.0137 128.773 15.7461 128.101 15.7461H43.0379C42.3664 15.7461 41.7225 16.0137 41.2477 16.49C40.773 16.9662 40.5062 17.6122 40.5062 18.2858V28.9525Z" fill="#2977B3"/>
<path d="M122.025 23.873C121.623 23.8726 121.237 23.7118 120.952 23.426C120.674 23.1358 120.515 22.7515 120.506 22.3492C120.507 21.9452 120.667 21.5578 120.952 21.2723C121.242 20.9965 121.626 20.8428 122.025 20.8428C122.425 20.8428 122.809 20.9965 123.099 21.2723C123.384 21.5615 123.545 21.9522 123.545 22.3593C123.545 22.7665 123.384 23.1571 123.099 23.4463C122.809 23.7211 122.424 23.8738 122.025 23.873Z" fill="#2977B3"/>
<path d="M110.38 22.3491C110.377 22.1483 110.414 21.9489 110.49 21.7628C110.565 21.5767 110.677 21.4076 110.819 21.2656C110.96 21.1235 111.129 21.0114 111.314 20.9358C111.5 20.8601 111.699 20.8226 111.899 20.8253C112.302 20.8253 112.688 20.9859 112.973 21.2716C113.258 21.5574 113.418 21.945 113.418 22.3491C113.413 22.7516 113.251 23.1362 112.967 23.4208C112.683 23.7055 112.3 23.8677 111.899 23.873C111.496 23.873 111.11 23.7124 110.825 23.4266C110.54 23.1409 110.38 22.7533 110.38 22.3491Z" fill="#2977B3"/>
<path d="M101.772 23.873C101.369 23.8727 100.983 23.7119 100.699 23.426C100.421 23.1358 100.262 22.7515 100.253 22.3492C100.254 21.9452 100.414 21.5579 100.699 21.2724C100.986 20.9919 101.371 20.835 101.772 20.835C102.173 20.835 102.558 20.9919 102.846 21.2724C103.131 21.5616 103.292 21.9522 103.292 22.3594C103.292 22.7665 103.131 23.1572 102.846 23.4464C102.555 23.7211 102.171 23.8738 101.772 23.873Z" fill="#2977B3"/>
<path d="M28.8608 88.8889C28.4596 88.8836 28.0762 88.7214 27.7925 88.4367C27.5088 88.1521 27.347 87.7675 27.3418 87.365V65.6254C27.3418 65.2212 27.5018 64.8336 27.7867 64.5479C28.0716 64.2621 28.4579 64.1016 28.8608 64.1016C29.2636 64.1016 29.65 64.2621 29.9349 64.5479C30.2197 64.8336 30.3798 65.2212 30.3798 65.6254V87.365C30.3745 87.7675 30.2128 88.1521 29.9291 88.4367C29.6453 88.7214 29.262 88.8836 28.8608 88.8889Z" fill="#2977B3"/>
<path d="M28.8608 59.0223C28.4596 59.017 28.0762 58.8548 27.7925 58.5701C27.5088 58.2855 27.347 57.901 27.3418 57.4985V52.8254C27.3418 52.4213 27.5018 52.0337 27.7867 51.7479C28.0716 51.4622 28.4579 51.3016 28.8608 51.3016C29.2636 51.3016 29.65 51.4622 29.9349 51.7479C30.2197 52.0337 30.3798 52.4213 30.3798 52.8254V57.4985C30.3745 57.901 30.2128 58.2855 29.9291 58.5701C29.6453 58.8548 29.262 59.017 28.8608 59.0223Z" fill="#2977B3"/>
<path d="M74.5451 66.5116V98.6595H93.5355V66.5116H106.164L84.0403 43.8571L61.9323 66.5116H74.5451Z" fill="white"/>
<path d="M61.9324 66.5116H74.5926V98.6595H93.583V93.8969H80.9228C80.5031 93.8969 80.1005 93.7296 79.8037 93.4319C79.507 93.1342 79.3402 92.7304 79.3402 92.3093V63.3364C79.3402 62.9154 79.1735 62.5116 78.8767 62.2139C78.5799 61.9161 78.1774 61.7489 77.7577 61.7489H66.68L84.0878 43.9206L61.9324 66.5116Z" fill="#B5DDFF"/>
<path d="M84.0406 42.6666C84.2001 42.6676 84.3578 42.7004 84.5045 42.7631C84.6512 42.8258 84.784 42.9171 84.8952 43.0318L107.003 65.7179C107.164 65.885 107.274 66.0952 107.319 66.3234C107.364 66.5515 107.342 66.7878 107.256 67.0038C107.166 67.2198 107.014 67.4043 106.82 67.5341C106.626 67.664 106.398 67.7336 106.164 67.7341H94.7385V98.6597C94.7407 98.8166 94.7114 98.9724 94.6525 99.1179C94.5936 99.2633 94.5063 99.3954 94.3956 99.5064C94.285 99.6174 94.1533 99.705 94.0083 99.7641C93.8634 99.8232 93.7081 99.8525 93.5516 99.8504H74.5613C74.2465 99.8504 73.9446 99.7249 73.722 99.5016C73.4994 99.2783 73.3744 98.9755 73.3744 98.6597V67.7024H61.9485C61.7151 67.7018 61.487 67.6323 61.2928 67.5024C61.0985 67.3725 60.9468 67.188 60.8566 66.9721C60.7622 66.7576 60.7359 66.5191 60.7812 66.2891C60.8265 66.0591 60.9412 65.8486 61.1098 65.6862L83.2652 43.0318C83.4702 42.8187 83.7462 42.6887 84.0406 42.6666ZM103.332 65.321L84.0406 45.5719L64.7654 65.321H74.5454C74.7026 65.3189 74.8587 65.3482 75.0045 65.4071C75.1503 65.466 75.2831 65.5533 75.395 65.6641C75.5069 65.7749 75.5957 65.9069 75.6563 66.0524C75.717 66.1979 75.7482 66.354 75.7482 66.5117V97.469H92.3489V66.5117C92.353 66.1972 92.4794 65.8967 92.7011 65.6743C92.9228 65.4519 93.2223 65.3251 93.5358 65.321H103.332Z" fill="#2977B3"/>
<path d="M146.086 13.2063H143.291C142.888 13.2063 142.502 13.0458 142.217 12.76C141.932 12.4742 141.772 12.0866 141.772 11.6825C141.772 11.2784 141.932 10.8908 142.217 10.605C142.502 10.3192 142.888 10.1587 143.291 10.1587H146.086C146.489 10.1587 146.875 10.3192 147.16 10.605C147.445 10.8908 147.605 11.2784 147.605 11.6825C147.605 12.0866 147.445 12.4742 147.16 12.76C146.875 13.0458 146.489 13.2063 146.086 13.2063Z" fill="#2977B3"/>
<path d="M16.4658 25.3969H13.6708C13.268 25.3969 12.8816 25.2363 12.5967 24.9506C12.3119 24.6648 12.1519 24.2772 12.1519 23.8731C12.1519 23.4689 12.3119 23.0813 12.5967 22.7956C12.8816 22.5098 13.268 22.3492 13.6708 22.3492H16.4658C16.8686 22.3492 17.255 22.5098 17.5399 22.7956C17.8247 23.0813 17.9848 23.4689 17.9848 23.8731C17.9848 24.2772 17.8247 24.6648 17.5399 24.9506C17.255 25.2363 16.8686 25.3969 16.4658 25.3969Z" fill="#2977B3"/>
<path d="M155.443 13.2063H152.628C152.225 13.2063 151.839 13.0458 151.554 12.76C151.269 12.4742 151.109 12.0866 151.109 11.6825C151.109 11.2784 151.269 10.8908 151.554 10.605C151.839 10.3192 152.225 10.1587 152.628 10.1587H155.443C155.846 10.1587 156.233 10.3192 156.517 10.605C156.802 10.8908 156.962 11.2784 156.962 11.6825C156.962 12.0866 156.802 12.4742 156.517 12.76C156.233 13.0458 155.846 13.2063 155.443 13.2063Z" fill="#2977B3"/>
<path d="M25.8229 25.3969H23.0078C22.6049 25.3969 22.2185 25.2363 21.9337 24.9506C21.6488 24.6648 21.4888 24.2772 21.4888 23.8731C21.4888 23.4689 21.6488 23.0813 21.9337 22.7956C22.2185 22.5098 22.6049 22.3492 23.0078 22.3492H25.8229C26.2258 22.3492 26.6122 22.5098 26.897 22.7956C27.1819 23.0813 27.3419 23.4689 27.3419 23.8731C27.3419 24.2772 27.1819 24.6648 26.897 24.9506C26.6122 25.2363 26.2258 25.3969 25.8229 25.3969Z" fill="#2977B3"/>
<path d="M149.367 19.3015C148.964 19.3015 148.578 19.141 148.293 18.8552C148.008 18.5694 147.848 18.1818 147.848 17.7777V14.9739C147.848 14.5697 148.008 14.1822 148.293 13.8964C148.578 13.6106 148.964 13.4501 149.367 13.4501C149.77 13.4501 150.156 13.6106 150.441 13.8964C150.726 14.1822 150.886 14.5697 150.886 14.9739V17.7777C150.881 18.1802 150.719 18.5647 150.435 18.8494C150.152 19.134 149.768 19.2962 149.367 19.3015Z" fill="#2977B3"/>
<path d="M19.7468 31.4921C19.3439 31.4921 18.9575 31.3315 18.6727 31.0457C18.3878 30.76 18.2278 30.3724 18.2278 29.9682V27.1644C18.2278 26.7603 18.3878 26.3727 18.6727 26.0869C18.9575 25.8012 19.3439 25.6406 19.7468 25.6406C20.1496 25.6406 20.536 25.8012 20.8208 26.0869C21.1057 26.3727 21.2658 26.7603 21.2658 27.1644V29.9682C21.2605 30.3707 21.0988 30.7553 20.8151 31.0399C20.5313 31.3246 20.148 31.4868 19.7468 31.4921Z" fill="#2977B3"/>
<path d="M149.367 9.91491C149.167 9.91764 148.968 9.88009 148.783 9.80448C148.597 9.72887 148.429 9.61673 148.287 9.47468C148.146 9.33263 148.034 9.16356 147.958 8.97745C147.883 8.79134 147.846 8.59196 147.848 8.3911V5.58729C147.848 5.18315 148.008 4.79556 148.293 4.50979C148.578 4.22402 148.964 4.06348 149.367 4.06348C149.77 4.06348 150.156 4.22402 150.441 4.50979C150.726 4.79556 150.886 5.18315 150.886 5.58729V8.3911C150.886 8.59121 150.847 8.78935 150.771 8.97423C150.694 9.15911 150.582 9.32709 150.441 9.46859C150.3 9.61009 150.133 9.72233 149.949 9.79891C149.764 9.87549 149.567 9.91491 149.367 9.91491Z" fill="#2977B3"/>
<path d="M19.7469 22.1055C19.5467 22.1082 19.3479 22.0706 19.1624 21.995C18.9769 21.9194 18.8083 21.8073 18.6667 21.6652C18.5251 21.5232 18.4134 21.3541 18.338 21.168C18.2626 20.9819 18.2252 20.7825 18.2279 20.5817V17.7778C18.2279 17.3737 18.3879 16.9861 18.6728 16.7003C18.9577 16.4146 19.344 16.254 19.7469 16.254C20.1498 16.254 20.5361 16.4146 20.821 16.7003C21.1059 16.9861 21.2659 17.3737 21.2659 17.7778V20.5817C21.2659 20.7818 21.2266 20.9799 21.1503 21.1648C21.0739 21.3497 20.962 21.5176 20.821 21.6591C20.6799 21.8006 20.5125 21.9129 20.3282 21.9895C20.1439 22.066 19.9464 22.1055 19.7469 22.1055Z" fill="#2977B3"/>
</g>
<defs>
<clipPath id="clip0">
<rect width="164.051" height="160" fill="white"/>
</clipPath>
</defs>
</svg>
