<svg width="153" height="160" viewBox="0 0 153 160" fill="none" xmlns="http://www.w3.org/2000/svg">
<g clip-path="url(#clip0)">
<path d="M95.6026 160C111.106 160 123.674 147.439 123.674 131.944C123.674 116.449 111.106 103.888 95.6026 103.888C80.0992 103.888 67.5312 116.449 67.5312 131.944C67.5312 147.439 80.0992 160 95.6026 160Z" fill="#FFE4EB"/>
<path d="M24.0612 93.6874C37.3498 93.6874 48.1224 82.9207 48.1224 69.6393C48.1224 56.3579 37.3498 45.5912 24.0612 45.5912C10.7726 45.5912 0 56.3579 0 69.6393C0 82.9207 10.7726 93.6874 24.0612 93.6874Z" fill="#FFE4EB"/>
<path d="M112.787 80.1603C134.934 80.1603 152.889 62.2158 152.889 40.0802C152.889 17.9445 134.934 0 112.787 0C90.6388 0 72.6846 17.9445 72.6846 40.0802C72.6846 62.2158 90.6388 80.1603 112.787 80.1603Z" fill="#FFE4EB"/>
<path d="M32.583 35.0701H134.843V141.283C134.843 142.345 134.421 143.365 133.669 144.117C132.916 144.868 131.896 145.291 130.833 145.291H36.5932C35.5296 145.291 34.5096 144.868 33.7576 144.117C33.0055 143.365 32.583 142.345 32.583 141.283V35.0701Z" fill="#B5DDFF"/>
<path d="M36.5932 17.0341H130.833C131.896 17.0341 132.916 17.4563 133.669 18.208C134.421 18.9596 134.843 19.9791 134.843 21.0421V35.0701H32.583V21.0421C32.583 19.9791 33.0055 18.9596 33.7576 18.208C34.5096 17.4563 35.5296 17.0341 36.5932 17.0341Z" fill="#B5DDFF"/>
<path d="M32.583 35.0701H116.797V87.1743C116.797 99.9302 111.727 112.164 102.702 121.183C93.6778 130.203 81.4377 135.27 68.6748 135.27H32.583V35.0701Z" fill="white"/>
<path d="M124.818 17.0341H36.5932C35.5296 17.0341 34.5096 17.4563 33.7576 18.208C33.0055 18.9596 32.583 19.9791 32.583 21.0421V29.0581H112.787C115.978 29.0581 119.038 27.7913 121.294 25.5363C123.55 23.2814 124.818 20.223 124.818 17.0341Z" fill="white"/>
<path d="M130.833 146.794H36.5933C35.1309 146.794 33.7283 146.213 32.6943 145.179C31.6602 144.146 31.0792 142.744 31.0792 141.283V35.0702C31.0765 34.872 31.1136 34.6754 31.1882 34.4918C31.2628 34.3082 31.3735 34.1415 31.5137 34.0014C31.6539 33.8613 31.8207 33.7507 32.0044 33.6761C32.1881 33.6015 32.3848 33.5645 32.5831 33.5672H134.843C135.242 33.5672 135.625 33.7255 135.907 34.0074C136.189 34.2892 136.347 34.6715 136.347 35.0702V141.283C136.347 142.744 135.766 144.146 134.732 145.179C133.698 146.213 132.295 146.794 130.833 146.794ZM34.0869 36.5732V141.283C34.0869 141.947 34.351 142.584 34.821 143.054C35.291 143.524 35.9285 143.788 36.5933 143.788H130.833C131.498 143.788 132.135 143.524 132.605 143.054C133.075 142.584 133.339 141.947 133.339 141.283V36.5732H34.0869Z" fill="#2977B3"/>
<path d="M134.843 36.5732H32.5829C32.1841 36.5732 31.8016 36.4149 31.5196 36.133C31.2375 35.8511 31.0791 35.4688 31.0791 35.0702V21.0422C31.0791 19.5805 31.66 18.1788 32.6941 17.1453C33.7282 16.1118 35.1307 15.5311 36.5931 15.5311H130.833C132.295 15.5311 133.698 16.1118 134.732 17.1453C135.766 18.1788 136.347 19.5805 136.347 21.0422V35.0702C136.342 35.4672 136.182 35.8465 135.901 36.1273C135.62 36.408 135.24 36.568 134.843 36.5732ZM34.0868 33.5672H133.339V21.0422C133.339 20.3778 133.075 19.7406 132.605 19.2708C132.135 18.8011 131.498 18.5371 130.833 18.5371H36.5931C35.9284 18.5371 35.2909 18.8011 34.8208 19.2708C34.3508 19.7406 34.0868 20.3778 34.0868 21.0422V33.5672Z" fill="#2977B3"/>
<path d="M14.5369 98.6974H6.51652C6.11768 98.6974 5.73518 98.5391 5.45316 98.2572C5.17113 97.9753 5.0127 97.593 5.0127 97.1944C5.0127 96.7958 5.17113 96.4135 5.45316 96.1316C5.73518 95.8498 6.11768 95.6914 6.51652 95.6914H14.5369C14.9358 95.6914 15.3183 95.8498 15.6003 96.1316C15.8823 96.4135 16.0407 96.7958 16.0407 97.1944C16.0407 97.593 15.8823 97.9753 15.6003 98.2572C15.3183 98.5391 14.9358 98.6974 14.5369 98.6974Z" fill="#2977B3"/>
<path d="M10.5264 102.705C10.3282 102.708 10.1314 102.671 9.94776 102.596C9.76409 102.522 9.59723 102.411 9.45705 102.271C9.31686 102.131 9.20619 101.964 9.13158 101.781C9.05696 101.597 9.0199 101.401 9.0226 101.202V93.1864C9.0226 92.7877 9.18104 92.4054 9.46306 92.1236C9.74508 91.8417 10.1276 91.6833 10.5264 91.6833C10.9253 91.6833 11.3078 91.8417 11.5898 92.1236C11.8718 92.4054 12.0303 92.7877 12.0303 93.1864V101.202C12.0303 101.601 11.8718 101.983 11.5898 102.265C11.3078 102.547 10.9253 102.705 10.5264 102.705Z" fill="#2977B3"/>
<path d="M10.5273 86.6734C11.3578 86.6734 12.0311 86.0005 12.0311 85.1704C12.0311 84.3403 11.3578 83.6674 10.5273 83.6674C9.69672 83.6674 9.02344 84.3403 9.02344 85.1704C9.02344 86.0005 9.69672 86.6734 10.5273 86.6734Z" fill="#2977B3"/>
<path d="M10.5273 80.6613C11.3578 80.6613 12.0311 79.9884 12.0311 79.1583C12.0311 78.3282 11.3578 77.6553 10.5273 77.6553C9.69672 77.6553 9.02344 78.3282 9.02344 79.1583C9.02344 79.9884 9.69672 80.6613 10.5273 80.6613Z" fill="#2977B3"/>
<path d="M10.5273 70.6413C11.3578 70.6413 12.0311 69.9684 12.0311 69.1383C12.0311 68.3082 11.3578 67.6353 10.5273 67.6353C9.69672 67.6353 9.02344 68.3082 9.02344 69.1383C9.02344 69.9684 9.69672 70.6413 10.5273 70.6413Z" fill="#2977B3"/>
<path d="M10.5273 58.6172C11.3578 58.6172 12.0311 57.9443 12.0311 57.1142C12.0311 56.2841 11.3578 55.6112 10.5273 55.6112C9.69672 55.6112 9.02344 56.2841 9.02344 57.1142C9.02344 57.9443 9.69672 58.6172 10.5273 58.6172Z" fill="#2977B3"/>
<path d="M106.772 27.5552C106.475 27.555 106.184 27.4667 105.937 27.3015C105.69 27.1364 105.498 26.9017 105.384 26.6272C105.27 26.3528 105.24 26.0508 105.298 25.7594C105.356 25.468 105.499 25.2003 105.709 24.9901C105.996 24.7181 106.377 24.5664 106.772 24.5664C107.167 24.5664 107.548 24.7181 107.835 24.9901C108.116 25.2719 108.275 25.6539 108.275 26.0522C108.275 26.4505 108.116 26.8326 107.835 27.1144C107.697 27.2558 107.531 27.3678 107.349 27.4435C107.166 27.5193 106.97 27.5573 106.772 27.5552Z" fill="#2977B3"/>
<path d="M114.291 26.0521C114.291 25.6535 114.449 25.2712 114.731 24.9893C115.013 24.7074 115.396 24.5491 115.795 24.5491C116.192 24.5543 116.572 24.7143 116.852 24.995C117.133 25.2758 117.293 25.6551 117.299 26.0521C117.293 26.4491 117.133 26.8284 116.852 27.1091C116.572 27.3899 116.192 27.5499 115.795 27.5551C115.396 27.5551 115.013 27.3967 114.731 27.1149C114.449 26.833 114.291 26.4507 114.291 26.0521Z" fill="#2977B3"/>
<path d="M124.797 27.5552C124.4 27.5466 124.021 27.3893 123.735 27.1144C123.453 26.8325 123.295 26.4505 123.295 26.0522C123.295 25.6539 123.453 25.2719 123.735 24.9901C124.022 24.7181 124.402 24.5664 124.797 24.5664C125.193 24.5664 125.573 24.7181 125.86 24.9901C126.003 25.1279 126.118 25.2927 126.197 25.475C126.276 25.6573 126.319 25.8535 126.321 26.0522C126.316 26.4459 126.166 26.824 125.9 27.1144C125.755 27.257 125.582 27.3694 125.393 27.445C125.204 27.5207 125.001 27.5582 124.797 27.5552Z" fill="#2977B3"/>
<path d="M25.7297 117.069L34.7471 126.081L44.0196 116.814L35.0023 107.801L25.7297 117.069Z" fill="#B5DDFF"/>
<path d="M33.3505 118.666L28.7559 114.076L35.0216 107.811L41.0342 113.818L36.1861 118.665C35.8102 119.041 35.3002 119.253 34.7684 119.253C34.2366 119.253 33.7266 119.042 33.3505 118.666Z" fill="white"/>
<path d="M34.7491 127.575C34.3504 127.575 33.9681 127.416 33.6864 127.134L24.6634 118.116C24.3818 117.834 24.2236 117.452 24.2236 117.054C24.2236 116.656 24.3818 116.274 24.6634 115.992L33.947 106.733C34.2339 106.461 34.6143 106.31 35.0097 106.31C35.4052 106.31 35.7856 106.461 36.0725 106.733L45.0954 115.751C45.377 116.033 45.5352 116.415 45.5352 116.813C45.5352 117.212 45.377 117.594 45.0954 117.876L35.8118 127.134C35.53 127.416 35.1478 127.575 34.7491 127.575ZM27.8515 117.054L34.7491 123.948L41.9073 116.813L35.0097 109.92L27.8515 117.054Z" fill="#2977B3"/>
<path d="M10.7135 127.791L24.0127 141.083L36.8865 128.216L23.5874 114.924L10.7135 127.791Z" fill="#B5DDFF"/>
<path d="M24.061 142.585C23.6623 142.585 23.2801 142.426 22.9983 142.144L9.66441 128.858C9.38279 128.576 9.22461 128.194 9.22461 127.795C9.22461 127.397 9.38279 127.015 9.66441 126.733L22.5372 113.868C22.824 113.596 23.2044 113.444 23.5999 113.444C23.9953 113.444 24.3757 113.596 24.6626 113.868L37.9564 127.154C38.238 127.436 38.3962 127.818 38.3962 128.216C38.3962 128.615 38.238 128.997 37.9564 129.278L25.0836 142.144C24.8118 142.416 24.4458 142.574 24.061 142.585ZM12.8525 127.795L24.061 138.958L34.7683 128.256L23.5999 117.094L12.8525 127.795Z" fill="#2977B3"/>
<path d="M8.34184 139.018L12.7731 143.447C13.9495 144.619 15.5431 145.278 17.2044 145.278C18.8657 145.278 20.4592 144.619 21.6357 143.447L24.0618 141.082L10.7279 127.796L8.34184 130.261C7.19913 131.432 6.55957 133.003 6.55957 134.639C6.55957 136.275 7.19913 137.847 8.34184 139.018Z" fill="white"/>
<path d="M20.0516 137.074L17.6254 139.439C16.449 140.611 14.8554 141.27 13.1941 141.27C11.5328 141.27 9.93931 140.611 8.76287 139.439L8.3418 139.018L12.7731 143.447C13.9495 144.619 15.543 145.278 17.2043 145.278C18.8656 145.278 20.4592 144.619 21.6356 143.447L24.0618 141.082L20.0516 137.074Z" fill="#B5DDFF"/>
<path d="M17.2032 146.794C16.1814 146.797 15.1692 146.597 14.2258 146.205C13.2824 145.812 12.4268 145.236 11.7092 144.509L7.27791 140.08C5.82817 138.62 5.01465 136.646 5.01465 134.589C5.01465 132.532 5.82817 130.558 7.27791 129.098L9.66398 126.733C9.80013 126.587 9.96427 126.468 10.1468 126.386C10.3293 126.303 10.5264 126.258 10.7267 126.252C11.1254 126.253 11.5076 126.411 11.7894 126.693L25.0832 139.98C25.3648 140.262 25.523 140.644 25.523 141.042C25.523 141.44 25.3648 141.822 25.0832 142.104L22.6971 144.469C21.9842 145.205 21.1304 145.79 20.1866 146.189C19.2427 146.589 18.2281 146.794 17.2032 146.794ZM10.7267 129.92L9.40331 131.222C8.51869 132.12 8.0219 133.329 8.01979 134.589C8.01427 135.214 8.13382 135.834 8.37141 136.412C8.609 136.99 8.95985 137.515 9.40331 137.956L13.8346 142.385C14.7414 143.252 15.9481 143.736 17.2032 143.736C18.4582 143.736 19.6649 143.252 20.5717 142.385L21.8951 141.082L10.7267 129.92Z" fill="#2977B3"/>
<path d="M66.0283 45.0902C74.0826 45.0902 81.9561 47.4773 88.6531 51.9496C95.35 56.422 100.57 62.7787 103.652 70.2159C106.734 77.6531 107.541 85.8368 105.969 93.7321C104.398 101.627 100.52 108.88 94.8242 114.572C89.1289 120.264 81.8727 124.14 73.9731 125.711C66.0735 127.281 57.8853 126.475 50.444 123.395C43.0028 120.314 36.6426 115.097 32.1679 108.404C27.6931 101.711 25.3047 93.8416 25.3047 85.7916C25.3047 74.9969 29.5952 64.6444 37.2323 57.0114C44.8695 49.3784 55.2277 45.0902 66.0283 45.0902Z" fill="white"/>
<path d="M91.6534 54.1083C98.0307 61.9186 101.281 71.8164 100.775 81.8847C100.269 91.9531 96.0423 101.475 88.9138 108.608C81.7853 115.74 72.2621 119.974 62.1889 120.49C52.1156 121.007 42.2089 117.769 34.3877 111.403C37.9889 115.813 42.4758 119.42 47.5584 121.989C52.641 124.558 58.2063 126.033 63.8949 126.319C69.5835 126.604 75.2687 125.694 80.5834 123.647C85.8981 121.6 90.724 118.461 94.7494 114.434C98.7747 110.406 101.91 105.58 103.953 100.266C105.996 94.952 106.9 89.2689 106.608 83.5837C106.317 77.8986 104.835 72.3378 102.259 67.2607C99.6829 62.1835 96.0699 57.7029 91.6534 54.1083Z" fill="#B5DDFF"/>
<path d="M66.0287 128.016C57.673 128.016 49.5049 125.54 42.5573 120.9C35.6097 116.26 30.1948 109.666 26.9972 101.95C23.7996 94.2348 22.9629 85.7449 24.593 77.5542C26.2232 69.3634 30.2468 61.8397 36.1553 55.9345C42.0637 50.0293 49.5914 46.0079 57.7867 44.3786C65.9819 42.7494 74.4764 43.5856 82.1961 46.7814C89.9158 49.9773 96.514 55.3893 101.156 62.3331C105.798 69.2769 108.276 77.4405 108.276 85.7917C108.266 96.9871 103.811 107.721 95.8905 115.637C87.9698 123.554 77.2302 128.006 66.0287 128.016ZM66.0287 46.5933C58.267 46.5933 50.6796 48.894 44.2262 53.2042C37.7728 57.5145 32.7433 63.6408 29.774 70.8082C26.8046 77.9756 26.0287 85.8621 27.5444 93.4703C29.0601 101.078 32.7993 108.066 38.2891 113.55C43.7789 119.035 50.7726 122.768 58.3857 124.279C65.9988 125.79 73.8893 125.011 81.0591 122.039C88.2288 119.068 94.3559 114.038 98.6652 107.586C102.974 101.134 105.272 93.5493 105.269 85.7917C105.258 75.3955 101.12 65.4283 93.7625 58.0789C86.4054 50.7295 76.4307 46.5986 66.0287 46.5933Z" fill="#2977B3"/>
<path d="M92.0945 80.6611C92.0576 77.6086 91.0254 74.6515 89.1545 72.2385C87.2837 69.8254 84.6764 68.0882 81.7282 67.2903C78.78 66.4925 75.6519 66.6776 72.8185 67.8176C69.9851 68.9575 67.6011 70.9901 66.0282 73.607C64.4554 70.9901 62.0714 68.9575 59.238 67.8176C56.4046 66.6776 53.2764 66.4925 50.3282 67.2903C47.3801 68.0882 44.7727 69.8254 42.9019 72.2385C41.0311 74.6515 39.9989 77.6086 39.9619 80.6611C39.9619 97.0539 66.0282 112.845 66.0282 112.845C66.0282 112.845 92.0945 97.0539 92.0945 80.6611Z" fill="white"/>
<path d="M105.529 134.769H102.762C102.363 134.769 101.98 134.611 101.698 134.329C101.416 134.047 101.258 133.665 101.258 133.266C101.258 132.868 101.416 132.486 101.698 132.204C101.98 131.922 102.363 131.763 102.762 131.763H105.529C105.928 131.763 106.31 131.922 106.592 132.204C106.874 132.486 107.033 132.868 107.033 133.266C107.033 133.665 106.874 134.047 106.592 134.329C106.31 134.611 105.928 134.769 105.529 134.769Z" fill="#2977B3"/>
<path d="M114.792 134.769H112.005C111.606 134.769 111.223 134.611 110.941 134.329C110.659 134.047 110.501 133.665 110.501 133.266C110.501 132.868 110.659 132.486 110.941 132.204C111.223 131.922 111.606 131.763 112.005 131.763H114.792C115.191 131.763 115.573 131.922 115.855 132.204C116.137 132.486 116.296 132.868 116.296 133.266C116.296 133.665 116.137 134.047 115.855 134.329C115.573 134.611 115.191 134.769 114.792 134.769Z" fill="#2977B3"/>
<path d="M108.776 140.781C108.377 140.781 107.995 140.623 107.713 140.341C107.431 140.059 107.272 139.677 107.272 139.278V136.493C107.272 136.094 107.431 135.712 107.713 135.43C107.995 135.148 108.377 134.99 108.776 134.99C109.175 134.99 109.558 135.148 109.84 135.43C110.122 135.712 110.28 136.094 110.28 136.493V139.278C110.275 139.675 110.115 140.055 109.834 140.335C109.553 140.616 109.174 140.776 108.776 140.781Z" fill="#2977B3"/>
<path d="M108.776 131.523C108.578 131.526 108.381 131.489 108.198 131.414C108.014 131.34 107.847 131.229 107.707 131.089C107.567 130.949 107.456 130.782 107.382 130.598C107.307 130.415 107.27 130.218 107.273 130.02V127.255C107.273 126.856 107.431 126.474 107.713 126.192C107.995 125.91 108.378 125.752 108.776 125.752C109.175 125.752 109.558 125.91 109.84 126.192C110.122 126.474 110.28 126.856 110.28 127.255V130.02C110.28 130.419 110.122 130.801 109.84 131.083C109.558 131.365 109.175 131.523 108.776 131.523Z" fill="#2977B3"/>
<path d="M119.564 110.721H116.797C116.398 110.721 116.015 110.563 115.733 110.281C115.451 109.999 115.293 109.617 115.293 109.218C115.293 108.82 115.451 108.438 115.733 108.156C116.015 107.874 116.398 107.715 116.797 107.715H119.564C119.963 107.715 120.345 107.874 120.627 108.156C120.909 108.438 121.068 108.82 121.068 109.218C121.068 109.617 120.909 109.999 120.627 110.281C120.345 110.563 119.963 110.721 119.564 110.721Z" fill="#2977B3"/>
<path d="M128.828 110.721H126.041C125.642 110.721 125.26 110.563 124.978 110.281C124.696 109.999 124.537 109.617 124.537 109.218C124.537 108.82 124.696 108.438 124.978 108.156C125.26 107.874 125.642 107.715 126.041 107.715H128.828C129.227 107.715 129.609 107.874 129.891 108.156C130.173 108.438 130.332 108.82 130.332 109.218C130.332 109.617 130.173 109.999 129.891 110.281C129.609 110.563 129.227 110.721 128.828 110.721Z" fill="#2977B3"/>
<path d="M122.812 116.733C122.414 116.733 122.031 116.575 121.749 116.293C121.467 116.011 121.309 115.629 121.309 115.23V112.445C121.309 112.046 121.467 111.664 121.749 111.382C122.031 111.1 122.414 110.942 122.812 110.942C123.211 110.942 123.594 111.1 123.876 111.382C124.158 111.664 124.316 112.046 124.316 112.445V115.23C124.311 115.627 124.151 116.007 123.87 116.287C123.589 116.568 123.21 116.728 122.812 116.733Z" fill="#2977B3"/>
<path d="M122.813 107.475C122.614 107.478 122.418 107.441 122.234 107.366C122.05 107.292 121.883 107.181 121.743 107.041C121.603 106.901 121.492 106.734 121.418 106.55C121.343 106.367 121.306 106.17 121.309 105.972V103.206C121.309 102.808 121.467 102.426 121.749 102.144C122.031 101.862 122.414 101.703 122.813 101.703C123.211 101.703 123.594 101.862 123.876 102.144C124.158 102.426 124.316 102.808 124.316 103.206V105.972C124.316 106.371 124.158 106.753 123.876 107.035C123.594 107.317 123.211 107.475 122.813 107.475Z" fill="#2977B3"/>
<path d="M109.538 56.5934H106.771C106.373 56.5934 105.99 56.4351 105.708 56.1532C105.426 55.8713 105.268 55.489 105.268 55.0904C105.268 54.6918 105.426 54.3095 105.708 54.0276C105.99 53.7458 106.373 53.5874 106.771 53.5874H109.538C109.937 53.5874 110.32 53.7458 110.602 54.0276C110.884 54.3095 111.042 54.6918 111.042 55.0904C111.042 55.489 110.884 55.8713 110.602 56.1532C110.32 56.4351 109.937 56.5934 109.538 56.5934Z" fill="#2977B3"/>
<path d="M118.803 56.5934H116.016C115.617 56.5934 115.234 56.4351 114.952 56.1532C114.67 55.8713 114.512 55.489 114.512 55.0904C114.512 54.6918 114.67 54.3095 114.952 54.0276C115.234 53.7458 115.617 53.5874 116.016 53.5874H118.803C119.201 53.5874 119.584 53.7458 119.866 54.0276C120.148 54.3095 120.306 54.6918 120.306 55.0904C120.306 55.489 120.148 55.8713 119.866 56.1532C119.584 56.4351 119.201 56.5934 118.803 56.5934Z" fill="#2977B3"/>
<path d="M112.787 62.605C112.589 62.6077 112.392 62.5707 112.209 62.4961C112.025 62.4215 111.858 62.3109 111.718 62.1708C111.578 62.0307 111.467 61.864 111.392 61.6804C111.318 61.4968 111.281 61.3002 111.283 61.102V58.3365C111.283 57.9379 111.442 57.5556 111.724 57.2737C112.006 56.9918 112.388 56.8335 112.787 56.8335C113.186 56.8335 113.569 56.9918 113.851 57.2737C114.133 57.5556 114.291 57.9379 114.291 58.3365V61.102C114.291 61.5007 114.133 61.883 113.851 62.1648C113.569 62.4467 113.186 62.605 112.787 62.605Z" fill="#2977B3"/>
<path d="M112.787 53.3669C112.388 53.3669 112.006 53.2086 111.724 52.9267C111.442 52.6448 111.283 52.2625 111.283 51.8639V49.0783C111.283 48.6797 111.442 48.2974 111.724 48.0155C112.006 47.7337 112.388 47.5753 112.787 47.5753C113.186 47.5753 113.568 47.7337 113.85 48.0155C114.132 48.2974 114.291 48.6797 114.291 49.0783V51.8639C114.286 52.2609 114.126 52.6402 113.845 52.9209C113.564 53.2017 113.184 53.3617 112.787 53.3669Z" fill="#2977B3"/>
<path d="M74.4219 103.079C75.6219 103.079 80.7552 96.5787 82.9219 94.0787C78.9219 96.5787 75.9219 96.0787 72.4219 94.5787C70.1855 93.6203 60.5885 83.7454 55.9219 78.0787C55.4219 78.9121 54.8219 82.4787 54.4219 84.0787C53.9219 86.0787 72.9219 103.079 74.4219 103.079Z" fill="#B5DDFF"/>
<path d="M80.9928 111.115L83.9129 108.135L85.9988 106.05L91.0643 100.984C91.5411 100.507 91.5411 99.7921 91.0643 99.3153C90.5875 98.8386 89.8724 98.8386 89.3957 99.3153L87.3098 101.401L83.0786 97.1699L83.4958 96.7528C84.8665 95.3821 84.8665 93.0579 83.4958 91.6872L65.7961 73.9876C64.4255 72.6169 62.1609 72.6169 60.7306 73.9876L59.4791 72.7361C58.7044 71.9613 57.6316 71.5442 56.4993 71.5442C55.7842 71.5442 55.1287 71.723 54.5327 72.0209L43.5077 60.9363C43.0309 60.4595 42.3158 60.4595 41.839 60.9363C41.5411 61.1747 41.4219 61.4727 41.4219 61.7706C41.4219 62.0686 41.5411 62.3666 41.7794 62.605L52.8641 73.6896C52.5661 74.2855 52.3873 74.9411 52.3873 75.6562C52.3873 76.7885 52.8045 77.8016 53.5792 78.6359L54.8307 79.8874L53.9964 80.7218C52.6257 82.0924 52.6257 84.4166 53.9964 85.7873L69.193 100.924L71.696 103.427C72.3516 104.083 73.2455 104.5 74.199 104.5C75.1525 104.5 76.0464 104.142 76.702 103.427L77.1787 103.07L81.41 107.301L79.3241 109.387C79.0858 109.625 78.9666 109.923 78.9666 110.221C78.9666 110.519 79.0858 110.817 79.3241 111.055C79.8009 111.532 80.516 111.532 80.9928 111.115ZM73.4243 101.818L71.7556 100.15L75.9868 95.9184C76.4636 95.4417 76.4636 94.7265 75.9868 94.2498C75.5101 93.773 74.7353 93.773 74.3182 94.2498L70.087 98.481L67.584 95.978L71.8152 91.7468C72.292 91.27 72.292 90.5549 71.8152 90.0781C71.3384 89.6014 70.6233 89.6014 70.1465 90.0781L65.9153 94.3094L63.4123 91.8064L67.6436 87.5752C68.1203 87.0984 68.1203 86.3833 67.6436 85.9065C67.1668 85.4297 66.4517 85.4297 65.9749 85.9065L61.7437 90.1377L59.2407 87.6348L63.4719 83.4035C63.9487 82.9268 63.9487 82.2116 63.4719 81.7349C62.9952 81.2581 62.28 81.2581 61.8033 81.7349L57.5721 85.9661L55.7246 84.1187C55.2479 83.6419 55.2479 82.8672 55.7246 82.45L56.5589 81.6157C57.5125 80.6622 57.5125 79.1723 56.5589 78.2188L55.3075 76.9673C54.6519 76.3118 54.6519 75.1199 55.3075 74.4643C55.665 74.1067 56.0822 73.928 56.5589 73.928C57.0357 73.928 57.5125 74.1067 57.8104 74.4643L59.0619 75.7158C60.0154 76.6097 61.5053 76.6097 62.4588 75.7158C62.9356 75.239 63.6507 75.239 64.1275 75.7158L81.8271 93.4154C82.0655 93.6538 82.1847 93.9518 82.1847 94.2498C82.1847 94.5477 82.0655 94.8457 81.8271 95.0841L78.4302 98.481L75.0333 101.878C74.7949 102.116 74.497 102.235 74.199 102.235C73.901 102.176 73.603 102.057 73.4243 101.818ZM78.907 101.401L81.41 98.8982L85.6412 103.129L83.1382 105.632L78.907 101.401Z" fill="#2977B3"/>
</g>
<defs>
<clipPath id="clip0">
<rect width="152.889" height="160" fill="white"/>
</clipPath>
</defs>
</svg>
